<svg xmlns="http://www.w3.org/2000/svg" version="1.1" xmlns:xlink="http://www.w3.org/1999/xlink"
	width="1080" height="1080" viewBox="0 0 1080 1080">
		<title>hello world</title>
		<style>
			.s0 { fill: #b5c7eb }
			.s1 { fill: #7494d5 }
			.s2 { fill: #fda322 }
			.s3 { fill: #f2be73 }
		</style>
		<g id="SvgjsG1437">
			<path id="SvgjsPath1436" fill-rule="evenodd" class="s0" d="m440 140v50h-50v-50z"></path>
			<path id="SvgjsPath1435" fill-rule="evenodd" class="s0" d="m490 140v50h-50v-50z"></path>
			<path id="SvgjsPath1434" fill-rule="evenodd" class="s0" d="m540 140v50h-50v-50z"></path>
			<path id="SvgjsPath1433" fill-rule="evenodd" class="s0" d="m590 140v50h-50v-50z"></path>
			<path id="SvgjsPath1432" fill-rule="evenodd" class="s0" d="m640 140v50h-50v-50z"></path>
			<path id="SvgjsPath1431" fill-rule="evenodd" class="s0" d="m690 140v50h-50v-50z"></path>
			<path id="SvgjsPath1430" fill-rule="evenodd" class="s0" d="m740 140v50h-50v-50z"></path>
			<path id="SvgjsPath1429" fill-rule="evenodd" class="s0" d="m790 140v50h-50v-50z"></path>
			<path id="SvgjsPath1428" fill-rule="evenodd" class="s0" d="m840 140v50h-50v-50z"></path>
			<path id="SvgjsPath1427" fill-rule="evenodd" class="s0" d="m890 140v50h-50v-50z"></path>
			<path id="SvgjsPath1426" fill-rule="evenodd" class="s0" d="m390 190v50h-50v-50z"></path>
			<path id="SvgjsPath1425" fill-rule="evenodd" class="s0" d="m440 190v50h-50v-50z"></path>
			<path id="SvgjsPath1424" fill-rule="evenodd" class="s0" d="m490 190v50h-50v-50z"></path>
			<path id="SvgjsPath1423" fill-rule="evenodd" class="s0" d="m540 190v50h-50v-50z"></path>
			<path id="SvgjsPath1422" fill-rule="evenodd" class="s0" d="m590 190v50h-50v-50z"></path>
			<path id="SvgjsPath1421" fill-rule="evenodd" class="s0" d="m640 190v50h-50v-50z"></path>
			<path id="SvgjsPath1420" fill-rule="evenodd" class="s0" d="m690 190v50h-50v-50z"></path>
			<path id="SvgjsPath1419" fill-rule="evenodd" class="s0" d="m740 190v50h-50v-50z"></path>
			<path id="SvgjsPath1418" fill-rule="evenodd" class="s0" d="m790 190v50h-50v-50z"></path>
			<path id="SvgjsPath1417" fill-rule="evenodd" class="s0" d="m840 190v50h-50v-50z"></path>
			<path id="SvgjsPath1416" fill-rule="evenodd" class="s0" d="m890 190v50h-50v-50z"></path>
			<path id="SvgjsPath1415" fill-rule="evenodd" class="s0" d="m940 190v50h-50v-50z"></path>
			<path id="SvgjsPath1414" fill-rule="evenodd" class="s0" d="m390 240v50h-50v-50z"></path>
			<path id="SvgjsPath1413" fill-rule="evenodd" class="s0" d="m440 240v50h-50v-50z"></path>
			<path id="SvgjsPath1412" fill-rule="evenodd" class="s0" d="m490 240v50h-50v-50z"></path>
			<path id="SvgjsPath1411" fill-rule="evenodd" class="s0" d="m540 240v50h-50v-50z"></path>
			<path id="SvgjsPath1410" fill-rule="evenodd" class="s0" d="m590 240v50h-50v-50z"></path>
			<path id="SvgjsPath1409" fill-rule="evenodd" class="s0" d="m640 240v50h-50v-50z"></path>
			<path id="SvgjsPath1408" fill-rule="evenodd" class="s0" d="m690 240v50h-50v-50z"></path>
			<path id="SvgjsPath1407" fill-rule="evenodd" class="s0" d="m740 240v50h-50v-50z"></path>
			<path id="SvgjsPath1406" fill-rule="evenodd" class="s0" d="m790 240v50h-50v-50z"></path>
			<path id="SvgjsPath1405" fill-rule="evenodd" class="s0" d="m840 240v50h-50v-50z"></path>
			<path id="SvgjsPath1404" fill-rule="evenodd" class="s0" d="m890 240v50h-50v-50z"></path>
			<path id="SvgjsPath1403" fill-rule="evenodd" class="s1" d="m940 240v50h-50v-50z"></path>
			<path id="SvgjsPath1402" fill-rule="evenodd" class="s0" d="m440 290v50h-50v-50z"></path>
			<path id="SvgjsPath1401" fill-rule="evenodd" class="s0" d="m490 290v50h-50v-50z"></path>
			<path id="SvgjsPath1400" fill-rule="evenodd" class="s0" d="m540 290v50h-50v-50z"></path>
			<path id="SvgjsPath1399" fill-rule="evenodd" class="s0" d="m590 290v50h-50v-50z"></path>
			<path id="SvgjsPath1398" fill-rule="evenodd" class="s0" d="m640 290v50h-50v-50z"></path>
			<path id="SvgjsPath1397" fill-rule="evenodd" class="s0" d="m690 290v50h-50v-50z"></path>
			<path id="SvgjsPath1396" fill-rule="evenodd" class="s0" d="m740 290v50h-50v-50z"></path>
			<path id="SvgjsPath1395" fill-rule="evenodd" class="s1" d="m790 290v50h-50v-50z"></path>
			<path id="SvgjsPath1394" fill-rule="evenodd" class="s1" d="m840 290v50h-50v-50z"></path>
			<path id="SvgjsPath1393" fill-rule="evenodd" class="s1" d="m890 290v50h-50v-50z"></path>
			<path id="SvgjsPath1392" fill-rule="evenodd" class="s0" d="m640 340v50h-50v-50z"></path>
			<path id="SvgjsPath1391" fill-rule="evenodd" class="s0" d="m690 340v50h-50v-50z"></path>
			<path id="SvgjsPath1390" fill-rule="evenodd" class="s1" d="m740 340v50h-50v-50z"></path>
			<path id="SvgjsPath1389" fill-rule="evenodd" class="s0" d="m640 390v50h-50v-50z"></path>
			<path id="SvgjsPath1388" fill-rule="evenodd" class="s1" d="m690 390v50h-50v-50z"></path>
			<path id="SvgjsPath1387" fill-rule="evenodd" class="s2" d="m290 440v50h-50v-50z"></path>
			<path id="SvgjsPath1386" fill-rule="evenodd" class="s2" d="m340 440v50h-50v-50z"></path>
			<path id="SvgjsPath1385" fill-rule="evenodd" class="s2" d="m390 440v50h-50v-50z"></path>
			<path id="SvgjsPath1384" fill-rule="evenodd" class="s2" d="m440 440v50h-50v-50z"></path>
			<path id="SvgjsPath1383" fill-rule="evenodd" class="s1" d="m640 440v50h-50v-50z"></path>
			<path id="SvgjsPath1382" fill-rule="evenodd" class="s2" d="m290 490v50h-50v-50z"></path>
			<path id="SvgjsPath1381" fill-rule="evenodd" class="s2" d="m340 490v50h-50v-50z"></path>
			<path id="SvgjsPath1380" fill-rule="evenodd" class="s2" d="m390 490v50h-50v-50z"></path>
			<path id="SvgjsPath1379" fill-rule="evenodd" class="s2" d="m440 490v50h-50v-50z"></path>
			<path id="SvgjsPath1378" fill-rule="evenodd" class="s2" d="m490 490v50h-50v-50z"></path>
			<path id="SvgjsPath1377" fill-rule="evenodd" class="s2" d="m540 490v50h-50v-50z"></path>
			<path id="SvgjsPath1376" fill-rule="evenodd" class="s2" d="m690 490v50h-50v-50z"></path>
			<path id="SvgjsPath1375" fill-rule="evenodd" class="s2" d="m740 490v50h-50v-50z"></path>
			<path id="SvgjsPath1374" fill-rule="evenodd" class="s2" d="m790 490v50h-50v-50z"></path>
			<path id="SvgjsPath1373" fill-rule="evenodd" class="s2" d="m840 490v50h-50v-50z"></path>
			<path id="SvgjsPath1372" fill-rule="evenodd" class="s2" d="m290 540v50h-50v-50z"></path>
			<path id="SvgjsPath1371" fill-rule="evenodd" class="s2" d="m340 540v50h-50v-50z"></path>
			<path id="SvgjsPath1370" fill-rule="evenodd" class="s2" d="m390 540v50h-50v-50z"></path>
			<path id="SvgjsPath1369" fill-rule="evenodd" class="s2" d="m440 540v50h-50v-50z"></path>
			<path id="SvgjsPath1368" fill-rule="evenodd" class="s2" d="m490 540v50h-50v-50z"></path>
			<path id="SvgjsPath1367" fill-rule="evenodd" class="s2" d="m540 540v50h-50v-50z"></path>
			<path id="SvgjsPath1366" fill-rule="evenodd" class="s2" d="m590 540v50h-50v-50z"></path>
			<path id="SvgjsPath1365" fill-rule="evenodd" class="s2" d="m640 540v50h-50v-50z"></path>
			<path id="SvgjsPath1364" fill-rule="evenodd" class="s2" d="m690 540v50h-50v-50z"></path>
			<path id="SvgjsPath1363" fill-rule="evenodd" class="s2" d="m740 540v50h-50v-50z"></path>
			<path id="SvgjsPath1362" fill-rule="evenodd" class="s2" d="m790 540v50h-50v-50z"></path>
			<path id="SvgjsPath1361" fill-rule="evenodd" class="s3" d="m840 540v50h-50v-50z"></path>
			<path id="SvgjsPath1360" fill-rule="evenodd" class="s2" d="m290 590v50h-50v-50z"></path>
			<path id="SvgjsPath1359" fill-rule="evenodd" class="s2" d="m340 590v50h-50v-50z"></path>
			<path id="SvgjsPath1358" fill-rule="evenodd" class="s3" d="m390 590v50h-50v-50z"></path>
			<path id="SvgjsPath1357" fill-rule="evenodd" class="s2" d="m290 640v50h-50v-50z"></path>
			<path id="SvgjsPath1356" fill-rule="evenodd" class="s2" d="m340 640v50h-50v-50z"></path>
			<path id="SvgjsPath1355" fill-rule="evenodd" class="s3" d="m340 690v50h-50v-50z"></path>
			<path id="SvgjsPath1354" fill-rule="evenodd" class="s2" d="m440 640v50h-50v-50z"></path>
			<path id="SvgjsPath1353" fill-rule="evenodd" class="s2" d="m490 640v50h-50v-50z"></path>
			<path id="SvgjsPath1352" fill-rule="evenodd" class="s2" d="m540 640v50h-50v-50z"></path>
			<path id="SvgjsPath1351" fill-rule="evenodd" class="s2" d="m590 640v50h-50v-50z"></path>
			<path id="SvgjsPath1350" fill-rule="evenodd" class="s2" d="m640 640v50h-50v-50z"></path>
			<path id="SvgjsPath1349" fill-rule="evenodd" class="s2" d="m690 640v50h-50v-50z"></path>
			<path id="SvgjsPath1348" fill-rule="evenodd" class="s2" d="m740 640v50h-50v-50z"></path>
			<path id="SvgjsPath1347" fill-rule="evenodd" class="s2" d="m790 640v50h-50v-50z"></path>
			<path id="SvgjsPath1346" fill-rule="evenodd" class="s2" d="m840 640v50h-50v-50z"></path>
			<path id="SvgjsPath1345" fill-rule="evenodd" class="s2" d="m290 690v50h-50v-50z"></path>
			<path id="SvgjsPath1344" fill-rule="evenodd" class="s2" d="m440 690v50h-50v-50z"></path>
			<path id="SvgjsPath1343" fill-rule="evenodd" class="s2" d="m490 690v50h-50v-50z"></path>
			<path id="SvgjsPath1342" fill-rule="evenodd" class="s2" d="m540 690v50h-50v-50z"></path>
			<path id="SvgjsPath1341" fill-rule="evenodd" class="s2" d="m590 690v50h-50v-50z"></path>
			<path id="SvgjsPath1340" fill-rule="evenodd" class="s2" d="m640 690v50h-50v-50z"></path>
			<path id="SvgjsPath1339" fill-rule="evenodd" class="s2" d="m690 690v50h-50v-50z"></path>
			<path id="SvgjsPath1338" fill-rule="evenodd" class="s2" d="m740 690v50h-50v-50z"></path>
			<path id="SvgjsPath1337" fill-rule="evenodd" class="s2" d="m790 690v50h-50v-50z"></path>
			<path id="SvgjsPath1336" fill-rule="evenodd" class="s2" d="m840 690v50h-50v-50z"></path>
			<path id="SvgjsPath1335" fill-rule="evenodd" class="s2" d="m290 740v50h-50v-50z"></path>
			<path id="SvgjsPath1334" fill-rule="evenodd" class="s2" d="m390 740v50h-50v-50z"></path>
			<path id="SvgjsPath1333" fill-rule="evenodd" class="s2" d="m440 740v50h-50v-50z"></path>
			<path id="SvgjsPath1332" fill-rule="evenodd" class="s2" d="m490 740v50h-50v-50z"></path>
			<path id="SvgjsPath1331" fill-rule="evenodd" class="s2" d="m540 740v50h-50v-50z"></path>
			<path id="SvgjsPath1330" fill-rule="evenodd" class="s2" d="m590 740v50h-50v-50z"></path>
			<path id="SvgjsPath1329" fill-rule="evenodd" class="s2" d="m640 740v50h-50v-50z"></path>
			<path id="SvgjsPath1328" fill-rule="evenodd" class="s2" d="m690 740v50h-50v-50z"></path>
			<path id="SvgjsPath1327" fill-rule="evenodd" class="s2" d="m740 740v50h-50v-50z"></path>
			<path id="SvgjsPath1326" fill-rule="evenodd" class="s2" d="m790 740v50h-50v-50z"></path>
			<path id="SvgjsPath1325" fill-rule="evenodd" class="s2" d="m840 740v50h-50v-50z"></path>
			<path id="SvgjsPath1324" fill-rule="evenodd" class="s3" d="m290 790v50h-50v-50z"></path>
			<path id="SvgjsPath1323" fill-rule="evenodd" class="s2" d="m390 790v50h-50v-50z"></path>
			<path id="SvgjsPath1322" fill-rule="evenodd" class="s2" d="m440 790v50h-50v-50z"></path>
			<path id="SvgjsPath1321" fill-rule="evenodd" class="s2" d="m490 790v50h-50v-50z"></path>
			<path id="SvgjsPath1320" fill-rule="evenodd" class="s2" d="m540 790v50h-50v-50z"></path>
			<path id="SvgjsPath1319" fill-rule="evenodd" class="s2" d="m590 790v50h-50v-50z"></path>
			<path id="SvgjsPath1318" fill-rule="evenodd" class="s2" d="m640 790v50h-50v-50z"></path>
			<path id="SvgjsPath1317" fill-rule="evenodd" class="s2" d="m690 790v50h-50v-50z"></path>
			<path id="SvgjsPath1316" fill-rule="evenodd" class="s2" d="m740 790v50h-50v-50z"></path>
			<path id="SvgjsPath1315" fill-rule="evenodd" class="s2" d="m790 790v50h-50v-50z"></path>
			<path id="SvgjsPath1314" fill-rule="evenodd" class="s2" d="m840 790v50h-50v-50z"></path>
			<path id="SvgjsPath1313" fill-rule="evenodd" class="s2" d="m340 840v50h-50v-50z"></path>
			<path id="SvgjsPath1312" fill-rule="evenodd" class="s2" d="m390 840v50h-50v-50z"></path>
			<path id="SvgjsPath1311" fill-rule="evenodd" class="s2" d="m440 840v50h-50v-50z"></path>
			<path id="SvgjsPath1310" fill-rule="evenodd" class="s2" d="m490 840v50h-50v-50z"></path>
			<path id="SvgjsPath1309" fill-rule="evenodd" class="s2" d="m540 840v50h-50v-50z"></path>
			<path id="SvgjsPath1308" fill-rule="evenodd" class="s2" d="m590 840v50h-50v-50z"></path>
			<path id="SvgjsPath1307" fill-rule="evenodd" class="s2" d="m640 840v50h-50v-50z"></path>
			<path id="SvgjsPath1306" fill-rule="evenodd" class="s2" d="m690 840v50h-50v-50z"></path>
			<path id="SvgjsPath1305" fill-rule="evenodd" class="s2" d="m740 840v50h-50v-50z"></path>
			<path id="SvgjsPath1304" fill-rule="evenodd" class="s2" d="m790 840v50h-50v-50z"></path>
			<path id="SvgjsPath1303" fill-rule="evenodd" class="s3" d="m840 840v50h-50v-50z"></path>
			<path id="SvgjsPath1302" fill-rule="evenodd" class="s2" d="m340 890v50h-50v-50z"></path>
			<path id="SvgjsPath1301" fill-rule="evenodd" class="s2" d="m390 890v50h-50v-50z"></path>
			<path id="SvgjsPath1300" fill-rule="evenodd" class="s2" d="m440 890v50h-50v-50z"></path>
			<path id="SvgjsPath1299" fill-rule="evenodd" class="s2" d="m490 890v50h-50v-50z"></path>
			<path id="SvgjsPath1298" fill-rule="evenodd" class="s2" d="m540 890v50h-50v-50z"></path>
			<path id="SvgjsPath1297" fill-rule="evenodd" class="s2" d="m590 890v50h-50v-50z"></path>
			<path id="SvgjsPath1296" fill-rule="evenodd" class="s2" d="m640 890v50h-50v-50z"></path>
			<path id="SvgjsPath1295" fill-rule="evenodd" class="s2" d="m690 890v50h-50v-50z"></path>
			<path id="SvgjsPath1294" fill-rule="evenodd" class="s2" d="m740 890v50h-50v-50z"></path>
			<path id="SvgjsPath1293" fill-rule="evenodd" class="s3" d="m790 890v50h-50v-50z"></path>
		</g>
		<g id="SvgjsG1292">
		</g>
		<path id="SvgjsPath1291" fill-rule="evenodd" class="s2" d="m469.5 187v19.5h-19.5v-19.5z"></path>
		<path id="SvgjsPath1290" fill-rule="evenodd" class="s2" d="m469.5 206.5v19.5h-19.5v-19.5z"></path>
		<path id="SvgjsPath1289" fill-rule="evenodd" class="s2" d="m489.1 216.7v19.5h-19.6v-19.5z"></path>
		<path id="SvgjsPath1288" fill-rule="evenodd" class="s2" d="m469.5 226v19.6h-19.5v-19.6z"></path>
		<path id="SvgjsPath1287" fill-rule="evenodd" class="s2" d="m508.6 187v19.5h-19.5v-19.5z"></path>
		<path id="SvgjsPath1286" fill-rule="evenodd" class="s2" d="m508.6 206.5v19.5h-19.5v-19.5z"></path>
		<path id="SvgjsPath1285" fill-rule="evenodd" class="s2" d="m469.5 245.6v19.5h-19.5v-19.5z"></path>
		<path id="SvgjsPath1284" fill-rule="evenodd" class="s2" d="m508.6 245.6v19.5h-19.5v-19.5z"></path>
		<path id="SvgjsPath1283" fill-rule="evenodd" class="s2" d="m508.6 226v19.6h-19.5v-19.6z"></path>
		<path id="SvgjsPath1282" fill-rule="evenodd" class="s2" d="m567.2 187v19.5h-19.6v-19.5z"></path>
		<path id="SvgjsPath1281" fill-rule="evenodd" class="s2" d="m586.7 187v19.5h-19.5v-19.5z"></path>
		<path id="SvgjsPath1280" fill-rule="evenodd" class="s2" d="m586.7 216.7v19.5h-19.5v-19.5z"></path>
		<path id="SvgjsPath1279" fill-rule="evenodd" class="s2" d="m547.6 187v19.5h-19.5v-19.5z"></path>
		<path id="SvgjsPath1278" fill-rule="evenodd" class="s2" d="m547.6 206.5v19.5h-19.5v-19.5z"></path>
		<path id="SvgjsPath1277" fill-rule="evenodd" class="s2" d="m547.6 226v19.6h-19.5v-19.6z"></path>
		<path id="SvgjsPath1276" fill-rule="evenodd" class="s2" d="m567.2 245.6v19.5h-19.6v-19.5z"></path>
		<path id="SvgjsPath1275" fill-rule="evenodd" class="s2" d="m586.7 245.6v19.5h-19.5v-19.5z"></path>
		<path id="SvgjsPath1274" fill-rule="evenodd" class="s2" d="m547.6 245.6v19.5h-19.5v-19.5z"></path>
		<path id="SvgjsPath1273" fill-rule="evenodd" class="s2" d="m567.2 187v19.5h-19.6v-19.5z"></path>
		<path id="SvgjsPath1272" fill-rule="evenodd" class="s2" d="m586.7 187v19.5h-19.5v-19.5z"></path>
		<path id="SvgjsPath1271" fill-rule="evenodd" class="s2" d="m547.6 187v19.5h-19.5v-19.5z"></path>
		<path id="SvgjsPath1270" fill-rule="evenodd" class="s2" d="m547.6 206.5v19.5h-19.5v-19.5z"></path>
		<path id="SvgjsPath1269" fill-rule="evenodd" class="s2" d="m547.6 226v19.6h-19.5v-19.6z"></path>
		<path id="SvgjsPath1268" fill-rule="evenodd" class="s2" d="m567.2 245.6v19.5h-19.6v-19.5z"></path>
		<path id="SvgjsPath1267" fill-rule="evenodd" class="s2" d="m586.7 245.6v19.5h-19.5v-19.5z"></path>
		<path id="SvgjsPath1266" fill-rule="evenodd" class="s2" d="m547.6 245.6v19.5h-19.5v-19.5z"></path>
		<path id="SvgjsPath1265" fill-rule="evenodd" class="s2" d="m625.8 187v19.5h-19.6v-19.5z"></path>
		<path id="SvgjsPath1264" fill-rule="evenodd" class="s2" d="m625.8 206.5v19.5h-19.6v-19.5z"></path>
		<path id="SvgjsPath1263" fill-rule="evenodd" class="s2" d="m625.8 226v19.6h-19.6v-19.6z"></path>
		<path id="SvgjsPath1262" fill-rule="evenodd" class="s2" d="m645.3 245.6v19.5h-19.5v-19.5z"></path>
		<path id="SvgjsPath1261" fill-rule="evenodd" class="s2" d="m664.8 245.6v19.5h-19.5v-19.5z"></path>
		<path id="SvgjsPath1260" fill-rule="evenodd" class="s2" d="m625.8 245.6v19.5h-19.6v-19.5z"></path>
		<path id="SvgjsPath1259" fill-rule="evenodd" class="s2" d="m625.8 187v19.5h-19.6v-19.5z"></path>
		<path id="SvgjsPath1258" fill-rule="evenodd" class="s2" d="m625.8 206.5v19.5h-19.6v-19.5z"></path>
		<path id="SvgjsPath1257" fill-rule="evenodd" class="s2" d="m625.8 226v19.6h-19.6v-19.6z"></path>
		<path id="SvgjsPath1256" fill-rule="evenodd" class="s2" d="m645.3 245.6v19.5h-19.5v-19.5z"></path>
		<path id="SvgjsPath1255" fill-rule="evenodd" class="s2" d="m664.8 245.6v19.5h-19.5v-19.5z"></path>
		<path id="SvgjsPath1254" fill-rule="evenodd" class="s2" d="m625.8 245.6v19.5h-19.6v-19.5z"></path>
		<path id="SvgjsPath1253" fill-rule="evenodd" class="s2" d="m703.9 187v19.5h-19.6v-19.5z"></path>
		<path id="SvgjsPath1252" fill-rule="evenodd" class="s2" d="m703.9 206.5v19.5h-19.6v-19.5z"></path>
		<path id="SvgjsPath1251" fill-rule="evenodd" class="s2" d="m703.9 226v19.6h-19.6v-19.6z"></path>
		<path id="SvgjsPath1250" fill-rule="evenodd" class="s2" d="m723.4 245.6v19.5h-19.5v-19.5z"></path>
		<path id="SvgjsPath1249" fill-rule="evenodd" class="s2" d="m742.9 245.6v19.5h-19.5v-19.5z"></path>
		<path id="SvgjsPath1248" fill-rule="evenodd" class="s2" d="m703.9 245.6v19.5h-19.6v-19.5z"></path>
		<path id="SvgjsPath1247" fill-rule="evenodd" class="s2" d="m703.9 187v19.5h-19.6v-19.5z"></path>
		<path id="SvgjsPath1246" fill-rule="evenodd" class="s2" d="m703.9 206.5v19.5h-19.6v-19.5z"></path>
		<path id="SvgjsPath1245" fill-rule="evenodd" class="s2" d="m703.9 226v19.6h-19.6v-19.6z"></path>
		<path id="SvgjsPath1244" fill-rule="evenodd" class="s2" d="m723.4 245.6v19.5h-19.5v-19.5z"></path>
		<path id="SvgjsPath1243" fill-rule="evenodd" class="s2" d="m742.9 245.6v19.5h-19.5v-19.5z"></path>
		<path id="SvgjsPath1242" fill-rule="evenodd" class="s2" d="m703.9 245.6v19.5h-19.6v-19.5z"></path>
		<path id="SvgjsPath1241" fill-rule="evenodd" class="s2" d="m782 187v19.5h-19.5v-19.5z"></path>
		<path id="SvgjsPath1240" fill-rule="evenodd" class="s2" d="m782 206.5v19.5h-19.5v-19.5z"></path>
		<path id="SvgjsPath1239" fill-rule="evenodd" class="s2" d="m782 226v19.6h-19.5v-19.6z"></path>
		<path id="SvgjsPath1238" fill-rule="evenodd" class="s2" d="m801.5 245.6v19.5h-19.5v-19.5z"></path>
		<path id="SvgjsPath1237" fill-rule="evenodd" class="s2" d="m821 245.6v19.5h-19.5v-19.5z"></path>
		<path id="SvgjsPath1236" fill-rule="evenodd" class="s2" d="m782 245.6v19.5h-19.5v-19.5z"></path>
		<path id="SvgjsPath1235" fill-rule="evenodd" class="s2" d="m782 187v19.5h-19.5v-19.5z"></path>
		<path id="SvgjsPath1234" fill-rule="evenodd" class="s2" d="m782 206.5v19.5h-19.5v-19.5z"></path>
		<path id="SvgjsPath1233" fill-rule="evenodd" class="s2" d="m782 226v19.6h-19.5v-19.6z"></path>
		<path id="SvgjsPath1232" fill-rule="evenodd" class="s2" d="m801.5 245.6v19.5h-19.5v-19.5z"></path>
		<path id="SvgjsPath1231" fill-rule="evenodd" class="s2" d="m821 245.6v19.5h-19.5v-19.5z"></path>
		<path id="SvgjsPath1230" fill-rule="evenodd" class="s0" d="m772.5 255.1v10h-10v-10z"></path>
		<path id="SvgjsPath1229" fill-rule="evenodd" class="s0" d="m772.5 186v10h-10v-10z"></path>
		<path id="SvgjsPath1228" fill-rule="evenodd" class="s2" d="m821 187v19.5h-19.5v-19.5z"></path>
		<path id="SvgjsPath1227" fill-rule="evenodd" class="s2" d="m821 206.5v19.5h-19.5v-19.5z"></path>
		<path id="SvgjsPath1226" fill-rule="evenodd" class="s2" d="m821 226v19.6h-19.5v-19.6z"></path>
		<path id="SvgjsPath1225" fill-rule="evenodd" class="s2" d="m821 245.6v19.5h-19.5v-19.5z"></path>
		<path id="SvgjsPath1224" fill-rule="evenodd" class="s2" d="m821 187v19.5h-19.5v-19.5z"></path>
		<path id="SvgjsPath1223" fill-rule="evenodd" class="s2" d="m821 206.5v19.5h-19.5v-19.5z"></path>
		<path id="SvgjsPath1222" fill-rule="evenodd" class="s2" d="m821 226v19.6h-19.5v-19.6z"></path>
		<path id="SvgjsPath1221" fill-rule="evenodd" class="s0" d="m822 186v10h-10v-10z"></path>
		<path id="SvgjsPath1220" fill-rule="evenodd" class="s0" d="m822 186v10h-10v-10z"></path>
		<path id="SvgjsPath1219" fill-rule="evenodd" class="s2" d="m801.5 187v19.5h-19.5v-19.5z"></path>
	<style>@media (prefers-color-scheme: light) { :root { filter: none; } }
		@media (prefers-color-scheme: dark) { :root { filter: none; } }
</style>
</svg>